<svg width="225" height="72" viewBox="0 0 225 72" fill="none" xmlns="http://www.w3.org/2000/svg">
<path d="M69.8193 36.2905C68.7185 36.9224 67.3833 37.4218 65.8137 37.7887C64.2441 38.1557 62.6133 38.3391 60.9214 38.3391C58.6383 38.3391 56.6916 38.0639 55.0813 37.5136C53.4913 36.9632 52.2886 36.1987 51.4732 35.2203C50.6782 34.2418 50.2807 33.1105 50.2807 31.8263C50.2807 30.7051 50.5865 29.7165 51.198 28.8603C51.8095 28.0042 52.6555 27.3417 53.7359 26.8728C52.9001 26.4448 52.258 25.8536 51.8095 25.0994C51.3815 24.3248 51.1674 23.4788 51.1674 22.5615C51.1674 21.3792 51.5343 20.2988 52.2682 19.3204C53.0224 18.3419 54.1639 17.5571 55.6928 16.966C57.2216 16.3748 59.1072 16.0792 61.3495 16.0792C62.756 16.0792 64.1422 16.2117 65.5079 16.4767C66.8737 16.7417 68.0764 17.0985 69.116 17.5469L67.4648 22.0723C65.5691 21.2365 63.6122 20.8186 61.5941 20.8186C60.1468 20.8186 59.0664 21.0123 58.353 21.3996C57.6395 21.7665 57.2828 22.2863 57.2828 22.959C57.2828 24.1821 58.1695 24.7936 59.943 24.7936H65.9972V29.4107H59.5455C58.5058 29.4107 57.721 29.584 57.191 29.9305C56.6611 30.2567 56.3961 30.7459 56.3961 31.3982C56.3961 32.0913 56.7834 32.6315 57.558 33.0188C58.3326 33.4061 59.5353 33.5997 61.166 33.5997C62.3279 33.5997 63.5204 33.4468 64.7435 33.1411C65.987 32.8149 67.0673 32.3767 67.9846 31.8263L69.8193 36.2905Z" fill="#333333"/>
<path d="M85.4031 29.2273C87.2989 29.8592 88.2468 31.1638 88.2468 33.1411C88.2468 34.6291 87.6658 35.8013 86.5039 36.6574C85.342 37.4932 83.6297 37.911 81.367 37.911H72.0411V21.3384H80.9389C83.0997 21.3384 84.7712 21.7156 85.9535 22.4698C87.1562 23.224 87.7575 24.284 87.7575 25.6498C87.7575 26.4448 87.5537 27.148 87.146 27.7596C86.7383 28.3711 86.1574 28.8603 85.4031 29.2273ZM77.2391 28.0042H80.4191C81.7645 28.0042 82.4372 27.5048 82.4372 26.5059C82.4372 25.5478 81.7645 25.0688 80.4191 25.0688H77.2391V28.0042ZM80.8472 34.1501C82.2537 34.1501 82.957 33.6405 82.957 32.6213C82.957 31.602 82.2741 31.0924 80.9083 31.0924H77.2391V34.1501H80.8472Z" fill="#333333"/>
<path d="M98.9479 32.0097H96.991V37.911H91.1814V21.3384H96.991V27.4538H99.0702L103.137 21.3384H109.283L103.718 29.2884L109.65 37.911H102.801L98.9479 32.0097Z" fill="#333333"/>
<path d="M128.454 21.3384V37.911H122.645V25.9555H118.456L118.333 28.4934C118.252 30.6542 118.038 32.4378 117.691 33.8443C117.345 35.2509 116.774 36.3516 115.979 37.1466C115.184 37.9212 114.093 38.3085 112.707 38.3085C111.994 38.3085 111.056 38.176 109.894 37.911L110.139 33.1717C110.506 33.2124 110.75 33.2328 110.873 33.2328C111.505 33.2328 111.984 33.029 112.31 32.6213C112.636 32.2136 112.86 31.6734 112.982 31.0007C113.105 30.3076 113.186 29.3903 113.227 28.2488L113.472 21.3384H128.454Z" fill="#333333"/>
<path d="M149.42 21.3384V37.911H143.886V36.1682C143.274 36.8205 142.541 37.3199 141.684 37.6664C140.849 38.013 139.952 38.1862 138.994 38.1862C136.833 38.1862 135.11 37.5543 133.826 36.2905C132.562 35.0266 131.93 33.1309 131.93 30.6032V21.3384H137.74V29.6553C137.74 32.0403 138.668 33.2328 140.523 33.2328C141.44 33.2328 142.184 32.9168 142.755 32.2849C143.325 31.6326 143.611 30.644 143.611 29.319V21.3384H149.42Z" fill="#333333"/>
<path d="M170.963 21.3384V34.8839C170.963 37.962 170.127 40.2655 168.456 41.7943C166.784 43.3435 164.379 44.1181 161.24 44.1181C159.609 44.1181 158.08 43.9347 156.653 43.5677C155.226 43.2008 154.013 42.6606 153.015 41.9472L155.124 37.8805C155.797 38.4309 156.643 38.8589 157.662 39.1647C158.702 39.4908 159.721 39.6539 160.72 39.6539C162.249 39.6539 163.37 39.3176 164.083 38.6449C164.797 37.9722 165.154 36.9734 165.154 35.6484V35.098C164.032 36.4026 162.391 37.0549 160.231 37.0549C158.763 37.0549 157.407 36.7287 156.164 36.0764C154.92 35.4038 153.932 34.4661 153.198 33.2634C152.464 32.0403 152.097 30.6338 152.097 29.0438C152.097 27.4742 152.464 26.088 153.198 24.8853C153.932 23.6623 154.92 22.7246 156.164 22.0723C157.407 21.3996 158.763 21.0633 160.231 21.0633C162.595 21.0633 164.328 21.8277 165.429 23.3565V21.3384H170.963ZM161.607 32.4378C162.646 32.4378 163.502 32.1218 164.175 31.4899C164.868 30.858 165.215 30.0426 165.215 29.0438C165.215 28.0449 164.878 27.2398 164.206 26.6282C163.533 25.9963 162.667 25.6803 161.607 25.6803C160.547 25.6803 159.67 25.9963 158.977 26.6282C158.304 27.2398 157.968 28.0449 157.968 29.0438C157.968 30.0426 158.315 30.858 159.008 31.4899C159.701 32.1218 160.567 32.4378 161.607 32.4378Z" fill="#333333"/>
<path d="M59.7066 46.0098V55.9885H56.9126V48.2479H53.1206V55.9885H50.3408V46.0098H59.7066Z" fill="#333333"/>
<path d="M65.817 48.1338C66.6629 48.1338 67.3994 48.2954 68.0266 48.6185C68.6539 48.9416 69.1338 49.4073 69.4664 50.0155C69.8085 50.6142 69.9796 51.3175 69.9796 52.1253C69.9796 52.9236 69.8228 53.6269 69.5092 54.2351C69.1956 54.8338 68.7537 55.2995 68.1834 55.6321C67.6132 55.9553 66.9527 56.1168 66.2019 56.1168C65.3181 56.1168 64.6243 55.846 64.1207 55.3043V58.7541H61.4121V52.1538C61.4121 51.3555 61.5927 50.6523 61.9538 50.044C62.315 49.4358 62.8282 48.9654 63.4934 48.6327C64.1587 48.3001 64.9332 48.1338 65.817 48.1338ZM65.6887 53.9643C66.1734 53.9643 66.5631 53.7979 66.8577 53.4653C67.1618 53.1232 67.3139 52.6765 67.3139 52.1253C67.3139 51.5741 67.1618 51.1322 66.8577 50.7996C66.5631 50.4574 66.1734 50.2864 65.6887 50.2864C65.2041 50.2864 64.8144 50.4574 64.5198 50.7996C64.2252 51.1322 64.0779 51.5741 64.0779 52.1253C64.0779 52.686 64.2204 53.1327 64.5055 53.4653C64.8002 53.7979 65.1946 53.9643 65.6887 53.9643Z" fill="#333333"/>
<path d="M75.0948 56.1168C74.268 56.1168 73.522 55.9458 72.8567 55.6036C72.1915 55.2615 71.6688 54.7863 71.2887 54.1781C70.918 53.5699 70.7327 52.8809 70.7327 52.1111C70.7327 51.3508 70.918 50.6665 71.2887 50.0583C71.6688 49.4501 72.1867 48.9796 72.8425 48.647C73.5077 48.3049 74.2585 48.1338 75.0948 48.1338C75.9312 48.1338 76.6819 48.3049 77.3472 48.647C78.0124 48.9796 78.5304 49.4501 78.901 50.0583C79.2717 50.657 79.457 51.3413 79.457 52.1111C79.457 52.8809 79.2717 53.5699 78.901 54.1781C78.5304 54.7863 78.0124 55.2615 77.3472 55.6036C76.6819 55.9458 75.9312 56.1168 75.0948 56.1168ZM75.0948 53.9643C75.57 53.9643 75.9597 53.8027 76.2638 53.4796C76.5679 53.1469 76.72 52.6908 76.72 52.1111C76.72 51.5408 76.5679 51.0942 76.2638 50.7711C75.9597 50.4479 75.57 50.2864 75.0948 50.2864C74.6197 50.2864 74.23 50.4479 73.9259 50.7711C73.6218 51.0942 73.4697 51.5408 73.4697 52.1111C73.4697 52.6908 73.6218 53.1469 73.9259 53.4796C74.23 53.8027 74.6197 53.9643 75.0948 53.9643Z" fill="#333333"/>
<path d="M84.8186 54.0498C85.1892 54.0498 85.5076 53.9975 85.7737 53.893C86.0493 53.7884 86.3249 53.6174 86.6005 53.3798L88.0118 54.8624C87.28 55.6987 86.1871 56.1168 84.733 56.1168C83.8302 56.1168 83.0366 55.9458 82.3524 55.6036C81.6681 55.2615 81.1359 54.7863 80.7558 54.1781C80.3851 53.5699 80.1998 52.8809 80.1998 52.1111C80.1998 51.3508 80.3851 50.6713 80.7558 50.0725C81.1264 49.4643 81.6349 48.9891 82.2811 48.647C82.9369 48.3049 83.6686 48.1338 84.4764 48.1338C85.2272 48.1338 85.9115 48.2906 86.5292 48.6042C87.1565 48.9084 87.6554 49.3598 88.026 49.9585C88.3967 50.5477 88.582 51.251 88.582 52.0683L83.0652 53.1232C83.3598 53.7409 83.9442 54.0498 84.8186 54.0498ZM84.4907 50.0583C84.025 50.0583 83.6449 50.2056 83.3503 50.5002C83.0557 50.7853 82.8893 51.1987 82.8513 51.7404L85.9875 51.1274C85.8925 50.8043 85.7119 50.5477 85.4458 50.3576C85.1797 50.1581 84.8613 50.0583 84.4907 50.0583Z" fill="#333333"/>
<path d="M93.4944 53.2372H92.5821V55.9885H89.8736V48.2621H92.5821V51.1132H93.5514L95.4474 48.2621H98.3127L95.7183 51.9685L98.4838 55.9885H95.2906L93.4944 53.2372Z" fill="#333333"/>
<path d="M109.446 48.1338C110.396 48.1338 111.152 48.4189 111.713 48.9891C112.283 49.5593 112.568 50.4194 112.568 51.5694V55.9885H109.859V52.0113C109.859 51.4696 109.755 51.0704 109.546 50.8138C109.346 50.5572 109.061 50.4289 108.691 50.4289C108.282 50.4289 107.954 50.5715 107.707 50.8566C107.46 51.1417 107.336 51.5741 107.336 52.1538V55.9885H104.628V52.0113C104.628 50.9564 104.238 50.4289 103.459 50.4289C103.041 50.4289 102.708 50.5715 102.461 50.8566C102.214 51.1417 102.09 51.5741 102.09 52.1538V55.9885H99.3818V48.2621H101.962V49.0747C102.247 48.761 102.584 48.5282 102.974 48.3762C103.373 48.2146 103.806 48.1338 104.271 48.1338C104.813 48.1338 105.298 48.2336 105.725 48.4332C106.153 48.6327 106.5 48.9369 106.766 49.3455C107.07 48.9559 107.455 48.6565 107.921 48.4474C108.386 48.2383 108.895 48.1338 109.446 48.1338Z" fill="#333333"/>
<path d="M114.208 48.2621H116.902V51.1274H119.682V48.2621H122.391V55.9885H119.682V53.28H116.902V55.9885H114.208V48.2621Z" fill="#333333"/>
<path d="M127.895 56.2166C125.339 56.2166 124.061 55.1189 124.061 52.9236V48.2621H126.755V50.714C126.954 50.581 127.22 50.4717 127.553 50.3862C127.895 50.3006 128.285 50.2579 128.722 50.2579C129.672 50.2579 130.418 50.5002 130.96 50.9849C131.502 51.4601 131.773 52.1681 131.773 53.1089C131.773 54.1258 131.421 54.9004 130.718 55.4326C130.024 55.9553 129.083 56.2166 127.895 56.2166ZM132.414 48.2621H135.123V55.9885H132.414V48.2621ZM127.895 54.3634C128.266 54.3634 128.546 54.2541 128.736 54.0355C128.926 53.817 129.021 53.5271 129.021 53.166C129.021 52.8143 128.926 52.5387 128.736 52.3391C128.546 52.1396 128.271 52.0398 127.909 52.0398C127.653 52.0398 127.425 52.0873 127.225 52.1823C127.026 52.2774 126.869 52.4057 126.755 52.5672V53.166C126.755 53.5366 126.85 53.8312 127.04 54.0498C127.23 54.2589 127.515 54.3634 127.895 54.3634Z" fill="#333333"/>
<path d="M141.033 54.0498C141.403 54.0498 141.722 53.9975 141.988 53.893C142.263 53.7884 142.539 53.6174 142.815 53.3798L144.226 54.8624C143.494 55.6987 142.401 56.1168 140.947 56.1168C140.044 56.1168 139.251 55.9458 138.566 55.6036C137.882 55.2615 137.35 54.7863 136.97 54.1781C136.599 53.5699 136.414 52.8809 136.414 52.1111C136.414 51.3508 136.599 50.6713 136.97 50.0725C137.341 49.4643 137.849 48.9891 138.495 48.647C139.151 48.3049 139.883 48.1338 140.691 48.1338C141.441 48.1338 142.126 48.2906 142.743 48.6042C143.371 48.9084 143.869 49.3598 144.24 49.9585C144.611 50.5477 144.796 51.251 144.796 52.0683L139.279 53.1232C139.574 53.7409 140.158 54.0498 141.033 54.0498ZM140.705 50.0583C140.239 50.0583 139.859 50.2056 139.564 50.5002C139.27 50.7853 139.103 51.1987 139.065 51.7404L142.202 51.1274C142.107 50.8043 141.926 50.5477 141.66 50.3576C141.394 50.1581 141.075 50.0583 140.705 50.0583Z" fill="#333333"/>
<path d="M154.114 56.1168C153.258 56.1168 152.493 55.9458 151.819 55.6036C151.144 55.2615 150.616 54.7863 150.236 54.1781C149.866 53.5699 149.68 52.8809 149.68 52.1111C149.68 51.3413 149.866 50.657 150.236 50.0583C150.616 49.4501 151.144 48.9796 151.819 48.647C152.493 48.3049 153.258 48.1338 154.114 48.1338C154.988 48.1338 155.744 48.3239 156.38 48.704C157.017 49.0747 157.468 49.5926 157.735 50.2579L155.639 51.327C155.287 50.6333 154.774 50.2864 154.099 50.2864C153.615 50.2864 153.211 50.4479 152.888 50.7711C152.574 51.0942 152.417 51.5408 152.417 52.1111C152.417 52.6908 152.574 53.1469 152.888 53.4796C153.211 53.8027 153.615 53.9643 154.099 53.9643C154.774 53.9643 155.287 53.6174 155.639 52.9236L157.735 53.9928C157.468 54.658 157.017 55.1807 156.38 55.5609C155.744 55.9315 154.988 56.1168 154.114 56.1168Z" fill="#333333"/>
<path d="M166.822 48.2621V55.9885H164.242V55.176C163.957 55.4801 163.614 55.7129 163.215 55.8745C162.826 56.036 162.407 56.1168 161.961 56.1168C160.953 56.1168 160.15 55.8222 159.552 55.233C158.962 54.6438 158.668 53.7599 158.668 52.5815V48.2621H161.376V52.1396C161.376 53.2515 161.809 53.8074 162.674 53.8074C163.101 53.8074 163.448 53.6601 163.714 53.3655C163.98 53.0614 164.113 52.6005 164.113 51.9828V48.2621H166.822Z" fill="#333333"/>
<path d="M172.518 56.1168C171.662 56.1168 170.897 55.9458 170.222 55.6036C169.548 55.2615 169.02 54.7863 168.64 54.1781C168.269 53.5699 168.084 52.8809 168.084 52.1111C168.084 51.3413 168.269 50.657 168.64 50.0583C169.02 49.4501 169.548 48.9796 170.222 48.647C170.897 48.3049 171.662 48.1338 172.518 48.1338C173.392 48.1338 174.147 48.3239 174.784 48.704C175.421 49.0747 175.872 49.5926 176.138 50.2579L174.043 51.327C173.691 50.6333 173.178 50.2864 172.503 50.2864C172.019 50.2864 171.615 50.4479 171.292 50.7711C170.978 51.0942 170.821 51.5408 170.821 52.1111C170.821 52.6908 170.978 53.1469 171.292 53.4796C171.615 53.8027 172.019 53.9643 172.503 53.9643C173.178 53.9643 173.691 53.6174 174.043 52.9236L176.138 53.9928C175.872 54.658 175.421 55.1807 174.784 55.5609C174.147 55.9315 173.392 56.1168 172.518 56.1168Z" fill="#333333"/>
<path d="M187.336 48.1338C188.286 48.1338 189.041 48.4189 189.602 48.9891C190.172 49.5593 190.458 50.4194 190.458 51.5694V55.9885H187.749V52.0113C187.749 51.4696 187.644 51.0704 187.435 50.8138C187.236 50.5572 186.951 50.4289 186.58 50.4289C186.171 50.4289 185.844 50.5715 185.596 50.8566C185.349 51.1417 185.226 51.5741 185.226 52.1538V55.9885H182.517V52.0113C182.517 50.9564 182.128 50.4289 181.348 50.4289C180.93 50.4289 180.598 50.5715 180.35 50.8566C180.103 51.1417 179.98 51.5741 179.98 52.1538V55.9885H177.271V48.2621H179.852V49.0747C180.137 48.761 180.474 48.5282 180.864 48.3762C181.263 48.2146 181.695 48.1338 182.161 48.1338C182.703 48.1338 183.187 48.2336 183.615 48.4332C184.043 48.6327 184.389 48.9369 184.656 49.3455C184.96 48.9559 185.345 48.6565 185.81 48.4474C186.276 48.2383 186.784 48.1338 187.336 48.1338Z" fill="#333333"/>
<path d="M196.189 54.0498C196.559 54.0498 196.878 53.9975 197.144 53.893C197.419 53.7884 197.695 53.6174 197.971 53.3798L199.382 54.8624C198.65 55.6987 197.557 56.1168 196.103 56.1168C195.2 56.1168 194.407 55.9458 193.723 55.6036C193.038 55.2615 192.506 54.7863 192.126 54.1781C191.755 53.5699 191.57 52.8809 191.57 52.1111C191.57 51.3508 191.755 50.6713 192.126 50.0725C192.497 49.4643 193.005 48.9891 193.651 48.647C194.307 48.3049 195.039 48.1338 195.847 48.1338C196.597 48.1338 197.282 48.2906 197.899 48.6042C198.527 48.9084 199.026 49.3598 199.396 49.9585C199.767 50.5477 199.952 51.251 199.952 52.0683L194.435 53.1232C194.73 53.7409 195.314 54.0498 196.189 54.0498ZM195.861 50.0583C195.395 50.0583 195.015 50.2056 194.72 50.5002C194.426 50.7853 194.26 51.1987 194.221 51.7404L197.358 51.1274C197.263 50.8043 197.082 50.5477 196.816 50.3576C196.55 50.1581 196.231 50.0583 195.861 50.0583Z" fill="#333333"/>
<path d="M208.742 55.9885V51.9257L206.761 55.3043H205.606L203.681 51.8687V55.9885H201.244V48.2621H204.095L206.247 52.2964L208.614 48.2621H211.165L211.18 55.9885H208.742Z" fill="#333333"/>
<path d="M216.685 56.2166C214.129 56.2166 212.85 55.1189 212.85 52.9236V48.2621H215.545V50.714C215.744 50.581 216.01 50.4717 216.343 50.3862C216.685 50.3006 217.075 50.2579 217.512 50.2579C218.462 50.2579 219.208 50.5002 219.75 50.9849C220.292 51.4601 220.563 52.1681 220.563 53.1089C220.563 54.1258 220.211 54.9004 219.508 55.4326C218.814 55.9553 217.873 56.2166 216.685 56.2166ZM221.204 48.2621H223.913V55.9885H221.204V48.2621ZM216.685 54.3634C217.056 54.3634 217.336 54.2541 217.526 54.0355C217.716 53.817 217.811 53.5271 217.811 53.166C217.811 52.8143 217.716 52.5387 217.526 52.3391C217.336 52.1396 217.06 52.0398 216.699 52.0398C216.443 52.0398 216.215 52.0873 216.015 52.1823C215.815 52.2774 215.659 52.4057 215.545 52.5672V53.166C215.545 53.5366 215.64 53.8312 215.83 54.0498C216.02 54.2589 216.305 54.3634 216.685 54.3634Z" fill="#333333"/>
<path d="M8.62557 42.7145L16.6313 24.2755H19.3171V29.4921L13.6356 42.7145H17.8709V40.3386C17.8709 39.7601 18.835 39.7188 19.3171 39.7704V47.0531C17.9949 47.0531 17.802 46.6055 17.8709 46.3816V44.3156H12.8609L0.46488 72H3.05176e-05L3.15068 62.4448C3.15068 62.4448 0.36158 61.3601 1.29128 59.0359C2.22098 56.7116 7.79917 44.3156 7.79917 44.3156H1.29128V42.7145H8.62557Z" fill="#FF9900"/>
<path d="M29.4921 42.7145L21.4864 24.2755H18.8006V29.4921L24.4821 42.7145H20.2468V40.3386C20.2468 39.7601 19.2827 39.7188 18.8006 39.7704V47.0531C20.1228 47.0531 20.3157 46.6055 20.2468 46.3816V44.3156H25.2568L37.6528 72H38.1177L34.967 62.4448C34.967 62.4448 37.7561 61.3601 36.8264 59.0359C35.8967 56.7116 30.3185 44.3156 30.3185 44.3156H36.8264V42.7145H29.4921Z" fill="#FF9900"/>
<path fill-rule="evenodd" clip-rule="evenodd" d="M19.1105 21.5897C22.1342 21.5897 24.5854 19.1385 24.5854 16.1148C24.5854 13.0911 22.1342 10.6399 19.1105 10.6399C16.0868 10.6399 13.6356 13.0911 13.6356 16.1148C13.6356 19.1385 16.0868 21.5897 19.1105 21.5897ZM19.1105 24.5854C23.7887 24.5854 27.5811 20.793 27.5811 16.1148C27.5811 11.4366 23.7887 7.64419 19.1105 7.64419C14.4324 7.64419 10.64 11.4366 10.64 16.1148C10.64 20.793 14.4324 24.5854 19.1105 24.5854Z" fill="#333333"/>
<path d="M17.561 0H20.66V8.16069H17.561V0Z" fill="#333333"/>
</svg>
